# xmcd CD database file
#
# Track frame offsets:
#	150
#	39167
#	61507
#	96372
#	110605
#	125913
#	154656
#	181002
#	195630
#	205280
#	231935
#	251775
#	266830
#
# Disc length: 3752 seconds
#
# Revision: 5
# Processed by: cddbd v1.5.2PL0 Copyright (c) Steve Scherf et al.
# Submitted via: CDex 1.51
#
DISCID=b50ea60d
DTITLE=Joseph Haydn - Quatuors à cordes Op.76  N°3, 5 and Op.64  N°5, 6
DYEAR=1900
DGENRE=Classique
TTITLE0=Quatuor à cordes Op.76  N°3 en ut majeur ''L'Empereur'' (extrait) - 2ème mouvement - Poco adagio cantabile
TTITLE1=Quatuor à cordes Op.76  N°5 en ré majeur - I. Allegro
TTITLE2=Quatuor à cordes Op.76  N°5 en ré majeur - II. Largo e cantabile e mesto
TTITLE3=Quatuor à cordes Op.76  N°5 en ré majeur - III. Menuetto 
TTITLE4=Quatuor à cordes Op.76  N°5 en ré majeur - IV. Finale - Presto 
TTITLE5=Quatuor à cordes Op.64  N°5 en ré majeur ''L'Alouette'' - I. Allegro moderato
TTITLE6=Quatuor à cordes Op.64  N°5 en ré majeur ''L'Alouette'' - II. Adagio
TTITLE7=Quatuor à cordes Op.64  N°5 en ré majeur ''L'Alouette'' - III. Menuet - Allegro
TTITLE8=Quatuor à cordes Op.64  N°5 en ré majeur ''L'Alouette'' - IV. Finale - Vivace
TTITLE9=Quatuor à cordes Op.64  N°6 en mi bémol majeur ''L'Alouette'' - I. Allegro
TTITLE10=Quatuor à cordes Op.64  N°6 en mi bémol majeur ''L'Alouette'' - II. Andante
TTITLE11=Quatuor à cordes Op.64  N°6 en mi bémol majeur ''L'Alouette'' - III. Menuet - Allegretto
TTITLE12=Quatuor à cordes Op.64  N°6 en mi bémol majeur ''L'Alouette'' - IV. Finale - Presto
EXTD=
EXTT0=
EXTT1=
EXTT2=
EXTT3=
EXTT4=
EXTT5=
EXTT6=
EXTT7=
EXTT8=
EXTT9=
EXTT10=
EXTT11=
EXTT12=
PLAYORDER=
